<mxfile host="Electron" modified="2024-04-09T13:42:40.202Z" agent="Mozilla/5.0 (Windows NT 10.0; Win64; x64) AppleWebKit/537.36 (KHTML, like Gecko) draw.io/24.1.0 Chrome/120.0.6099.109 Electron/28.1.0 Safari/537.36" etag="F61Xid5ef8KQUMsms0Ly" version="24.1.0" type="device">
  <diagram id="C5RBs43oDa-KdzZeNtuy" name="Page-1">
    <mxGraphModel dx="2003" dy="873" grid="0" gridSize="10" guides="1" tooltips="1" connect="1" arrows="1" fold="1" page="1" pageScale="1" pageWidth="3300" pageHeight="4681" math="0" shadow="0">
      <root>
        <mxCell id="WIyWlLk6GJQsqaUBKTNV-0" />
        <mxCell id="WIyWlLk6GJQsqaUBKTNV-1" parent="WIyWlLk6GJQsqaUBKTNV-0" />
        <mxCell id="igKSZ6gipQgDNoNqwFOj-2" value="" style="edgeStyle=orthogonalEdgeStyle;rounded=0;orthogonalLoop=1;jettySize=auto;html=1;" edge="1" parent="WIyWlLk6GJQsqaUBKTNV-1" source="igKSZ6gipQgDNoNqwFOj-0" target="igKSZ6gipQgDNoNqwFOj-1">
          <mxGeometry relative="1" as="geometry" />
        </mxCell>
        <mxCell id="igKSZ6gipQgDNoNqwFOj-0" value="&lt;font style=&quot;font-size: 18px;&quot;&gt;Начало&lt;/font&gt;" style="strokeWidth=2;html=1;shape=mxgraph.flowchart.start_1;whiteSpace=wrap;" vertex="1" parent="WIyWlLk6GJQsqaUBKTNV-1">
          <mxGeometry x="530" y="260" width="100" height="60" as="geometry" />
        </mxCell>
        <mxCell id="igKSZ6gipQgDNoNqwFOj-4" value="" style="edgeStyle=orthogonalEdgeStyle;rounded=0;orthogonalLoop=1;jettySize=auto;html=1;" edge="1" parent="WIyWlLk6GJQsqaUBKTNV-1" source="igKSZ6gipQgDNoNqwFOj-1" target="igKSZ6gipQgDNoNqwFOj-3">
          <mxGeometry relative="1" as="geometry" />
        </mxCell>
        <mxCell id="igKSZ6gipQgDNoNqwFOj-1" value="&lt;font style=&quot;font-size: 18px;&quot;&gt;Ввод f, epsilon, a, y_a, b&lt;/font&gt;" style="whiteSpace=wrap;html=1;strokeWidth=2;" vertex="1" parent="WIyWlLk6GJQsqaUBKTNV-1">
          <mxGeometry x="506" y="354" width="148" height="85" as="geometry" />
        </mxCell>
        <mxCell id="igKSZ6gipQgDNoNqwFOj-6" value="&#xa;&lt;span style=&quot;color: rgb(0, 0, 0); font-family: Helvetica; font-size: 14px; font-style: normal; font-variant-ligatures: normal; font-variant-caps: normal; font-weight: 400; letter-spacing: normal; orphans: 2; text-align: center; text-indent: 0px; text-transform: none; widows: 2; word-spacing: 0px; -webkit-text-stroke-width: 0px; white-space: nowrap; background-color: rgb(251, 251, 251); text-decoration-thickness: initial; text-decoration-style: initial; text-decoration-color: initial; display: inline !important; float: none;&quot;&gt;a, y_a, количество отрезков, шаг, функция&lt;/span&gt;&#xa;&#xa;" style="edgeStyle=orthogonalEdgeStyle;rounded=0;orthogonalLoop=1;jettySize=auto;html=1;exitX=1;exitY=0.5;exitDx=0;exitDy=0;entryX=0;entryY=0.5;entryDx=0;entryDy=0;" edge="1" parent="WIyWlLk6GJQsqaUBKTNV-1" source="igKSZ6gipQgDNoNqwFOj-3" target="igKSZ6gipQgDNoNqwFOj-5">
          <mxGeometry x="0.1022" relative="1" as="geometry">
            <mxPoint x="955" y="380" as="sourcePoint" />
            <Array as="points">
              <mxPoint x="660" y="530" />
              <mxPoint x="790" y="530" />
              <mxPoint x="790" y="533" />
            </Array>
            <mxPoint as="offset" />
          </mxGeometry>
        </mxCell>
        <mxCell id="igKSZ6gipQgDNoNqwFOj-3" value="&lt;font style=&quot;font-size: 18px;&quot;&gt;Устанавливаем начальное количество отрезков и шаг&lt;/font&gt;" style="whiteSpace=wrap;html=1;strokeWidth=2;" vertex="1" parent="WIyWlLk6GJQsqaUBKTNV-1">
          <mxGeometry x="488.5" y="487" width="183" height="102" as="geometry" />
        </mxCell>
        <mxCell id="igKSZ6gipQgDNoNqwFOj-16" value="" style="edgeStyle=orthogonalEdgeStyle;rounded=0;orthogonalLoop=1;jettySize=auto;html=1;" edge="1" parent="WIyWlLk6GJQsqaUBKTNV-1" source="igKSZ6gipQgDNoNqwFOj-5" target="igKSZ6gipQgDNoNqwFOj-15">
          <mxGeometry relative="1" as="geometry" />
        </mxCell>
        <mxCell id="igKSZ6gipQgDNoNqwFOj-5" value="&lt;div&gt;&lt;font style=&quot;font-size: 14px;&quot;&gt;y_i_old&lt;/font&gt;&lt;/div&gt;&lt;font size=&quot;3&quot;&gt;Функция вычисления значения в конечной точке&lt;/font&gt;" style="shape=process;whiteSpace=wrap;html=1;backgroundOutline=1;" vertex="1" parent="WIyWlLk6GJQsqaUBKTNV-1">
          <mxGeometry x="1006.67" y="468" width="190.33" height="104.5" as="geometry" />
        </mxCell>
        <mxCell id="igKSZ6gipQgDNoNqwFOj-7" value="" style="strokeWidth=2;html=1;shape=mxgraph.flowchart.annotation_2;align=left;labelPosition=right;pointerEvents=1;" vertex="1" parent="WIyWlLk6GJQsqaUBKTNV-1">
          <mxGeometry x="1197" y="458.75" width="75.33" height="123" as="geometry" />
        </mxCell>
        <mxCell id="igKSZ6gipQgDNoNqwFOj-8" value="&lt;font style=&quot;font-size: 18px;&quot;&gt;Вычисляется значение функции в конечной точке b,&lt;/font&gt;&lt;div&gt;&lt;font style=&quot;font-size: 18px;&quot;&gt;исходя из количества отрезков разбиения&lt;/font&gt;&lt;/div&gt;" style="text;html=1;align=center;verticalAlign=middle;resizable=0;points=[];autosize=1;strokeColor=none;fillColor=none;" vertex="1" parent="WIyWlLk6GJQsqaUBKTNV-1">
          <mxGeometry x="1252" y="490.25" width="460" height="60" as="geometry" />
        </mxCell>
        <mxCell id="igKSZ6gipQgDNoNqwFOj-22" style="edgeStyle=orthogonalEdgeStyle;rounded=0;orthogonalLoop=1;jettySize=auto;html=1;exitX=0.5;exitY=1;exitDx=0;exitDy=0;entryX=0.5;entryY=0;entryDx=0;entryDy=0;" edge="1" parent="WIyWlLk6GJQsqaUBKTNV-1" source="igKSZ6gipQgDNoNqwFOj-15" target="igKSZ6gipQgDNoNqwFOj-19">
          <mxGeometry relative="1" as="geometry" />
        </mxCell>
        <mxCell id="igKSZ6gipQgDNoNqwFOj-15" value="&lt;font style=&quot;font-size: 18px;&quot;&gt;Увеличиваем количество отрезков разбиения и шаг&lt;/font&gt;" style="whiteSpace=wrap;html=1;" vertex="1" parent="WIyWlLk6GJQsqaUBKTNV-1">
          <mxGeometry x="1017.7599999999999" y="612" width="168.16" height="93" as="geometry" />
        </mxCell>
        <mxCell id="igKSZ6gipQgDNoNqwFOj-17" value="&lt;span style=&quot;font-size: 14px; background-color: rgb(251, 251, 251);&quot;&gt;a, y_a, количество отрезков, шаг, функция&lt;/span&gt;" style="edgeLabel;html=1;align=center;verticalAlign=middle;resizable=0;points=[];" vertex="1" connectable="0" parent="WIyWlLk6GJQsqaUBKTNV-1">
          <mxGeometry x="1105" y="740" as="geometry">
            <mxPoint x="-10" as="offset" />
          </mxGeometry>
        </mxCell>
        <mxCell id="igKSZ6gipQgDNoNqwFOj-19" value="&lt;div&gt;&lt;font style=&quot;font-size: 18px;&quot;&gt;y_i_new&lt;/font&gt;&lt;/div&gt;&lt;font size=&quot;3&quot;&gt;Функция вычисления значения в конечной точке&lt;/font&gt;" style="shape=process;whiteSpace=wrap;html=1;backgroundOutline=1;" vertex="1" parent="WIyWlLk6GJQsqaUBKTNV-1">
          <mxGeometry x="1000.76" y="786" width="202.16" height="103" as="geometry" />
        </mxCell>
        <mxCell id="igKSZ6gipQgDNoNqwFOj-20" value="" style="strokeWidth=2;html=1;shape=mxgraph.flowchart.annotation_2;align=left;labelPosition=right;pointerEvents=1;" vertex="1" parent="WIyWlLk6GJQsqaUBKTNV-1">
          <mxGeometry x="1202.92" y="786" width="55" height="109.5" as="geometry" />
        </mxCell>
        <mxCell id="igKSZ6gipQgDNoNqwFOj-21" value="&lt;font style=&quot;font-size: 18px;&quot;&gt;Вычисляется значение функции в конечной точке b,&lt;/font&gt;&lt;div&gt;&lt;font style=&quot;font-size: 18px;&quot;&gt;исходя из количества отрезков разбиения&lt;/font&gt;&lt;/div&gt;" style="text;html=1;align=center;verticalAlign=middle;resizable=0;points=[];autosize=1;strokeColor=none;fillColor=none;" vertex="1" parent="WIyWlLk6GJQsqaUBKTNV-1">
          <mxGeometry x="1248" y="810" width="460" height="60" as="geometry" />
        </mxCell>
        <mxCell id="igKSZ6gipQgDNoNqwFOj-27" value="" style="edgeStyle=orthogonalEdgeStyle;rounded=0;orthogonalLoop=1;jettySize=auto;html=1;" edge="1" parent="WIyWlLk6GJQsqaUBKTNV-1" source="igKSZ6gipQgDNoNqwFOj-24" target="igKSZ6gipQgDNoNqwFOj-26">
          <mxGeometry relative="1" as="geometry" />
        </mxCell>
        <mxCell id="igKSZ6gipQgDNoNqwFOj-35" value="" style="edgeStyle=orthogonalEdgeStyle;rounded=0;orthogonalLoop=1;jettySize=auto;html=1;" edge="1" parent="WIyWlLk6GJQsqaUBKTNV-1" source="igKSZ6gipQgDNoNqwFOj-24" target="igKSZ6gipQgDNoNqwFOj-34">
          <mxGeometry relative="1" as="geometry" />
        </mxCell>
        <mxCell id="igKSZ6gipQgDNoNqwFOj-24" value="&lt;font style=&quot;font-size: 18px;&quot;&gt;Цикл while&amp;nbsp;&lt;/font&gt;&lt;div&gt;&lt;font size=&quot;3&quot;&gt;|y_i_new - y_i_old| &amp;gt; epsilon&lt;/font&gt;&lt;/div&gt;" style="strokeWidth=2;html=1;shape=mxgraph.flowchart.loop_limit;whiteSpace=wrap;" vertex="1" parent="WIyWlLk6GJQsqaUBKTNV-1">
          <mxGeometry x="481.55" y="632" width="175" height="100" as="geometry" />
        </mxCell>
        <mxCell id="igKSZ6gipQgDNoNqwFOj-25" style="edgeStyle=orthogonalEdgeStyle;rounded=0;orthogonalLoop=1;jettySize=auto;html=1;exitX=0.5;exitY=1;exitDx=0;exitDy=0;entryX=0.5;entryY=0;entryDx=0;entryDy=0;entryPerimeter=0;" edge="1" parent="WIyWlLk6GJQsqaUBKTNV-1" source="igKSZ6gipQgDNoNqwFOj-19" target="igKSZ6gipQgDNoNqwFOj-24">
          <mxGeometry relative="1" as="geometry">
            <Array as="points">
              <mxPoint x="1102" y="909" />
              <mxPoint x="908" y="909" />
              <mxPoint x="908" y="612" />
              <mxPoint x="569" y="612" />
            </Array>
          </mxGeometry>
        </mxCell>
        <mxCell id="igKSZ6gipQgDNoNqwFOj-32" style="edgeStyle=orthogonalEdgeStyle;rounded=0;orthogonalLoop=1;jettySize=auto;html=1;exitX=0.5;exitY=1;exitDx=0;exitDy=0;entryX=0.5;entryY=0;entryDx=0;entryDy=0;" edge="1" parent="WIyWlLk6GJQsqaUBKTNV-1" source="igKSZ6gipQgDNoNqwFOj-26" target="igKSZ6gipQgDNoNqwFOj-29">
          <mxGeometry relative="1" as="geometry" />
        </mxCell>
        <mxCell id="igKSZ6gipQgDNoNqwFOj-26" value="&lt;font style=&quot;font-size: 18px;&quot;&gt;y_i_new = y_i_old&lt;/font&gt;&lt;div&gt;&lt;font size=&quot;3&quot;&gt;Увеличиваем количество отрезков и уменьшаем шаг&lt;/font&gt;&lt;/div&gt;" style="whiteSpace=wrap;html=1;strokeWidth=2;" vertex="1" parent="WIyWlLk6GJQsqaUBKTNV-1">
          <mxGeometry x="474.05" y="802" width="190" height="100" as="geometry" />
        </mxCell>
        <mxCell id="igKSZ6gipQgDNoNqwFOj-28" value="&lt;span style=&quot;font-size: 14px; background-color: rgb(251, 251, 251);&quot;&gt;a, y_a, количество отрезков, шаг, функция&lt;/span&gt;" style="edgeLabel;html=1;align=center;verticalAlign=middle;resizable=0;points=[];" vertex="1" connectable="0" parent="WIyWlLk6GJQsqaUBKTNV-1">
          <mxGeometry x="572.55" y="952" as="geometry">
            <mxPoint x="-10" as="offset" />
          </mxGeometry>
        </mxCell>
        <mxCell id="igKSZ6gipQgDNoNqwFOj-29" value="&lt;div&gt;&lt;font style=&quot;font-size: 18px;&quot;&gt;y_i_new&lt;/font&gt;&lt;/div&gt;&lt;font size=&quot;3&quot;&gt;Функция вычисления значения в конечной точке&lt;/font&gt;" style="shape=process;whiteSpace=wrap;html=1;backgroundOutline=1;" vertex="1" parent="WIyWlLk6GJQsqaUBKTNV-1">
          <mxGeometry x="465.05" y="984" width="206.45" height="104" as="geometry" />
        </mxCell>
        <mxCell id="igKSZ6gipQgDNoNqwFOj-30" value="" style="strokeWidth=2;html=1;shape=mxgraph.flowchart.annotation_2;align=left;labelPosition=right;pointerEvents=1;" vertex="1" parent="WIyWlLk6GJQsqaUBKTNV-1">
          <mxGeometry x="675" y="987" width="55" height="105" as="geometry" />
        </mxCell>
        <mxCell id="igKSZ6gipQgDNoNqwFOj-31" value="&lt;font style=&quot;font-size: 18px;&quot;&gt;Вычисляется значение функции в конечной точке b,&lt;/font&gt;&lt;div&gt;&lt;font style=&quot;font-size: 18px;&quot;&gt;исходя из количества отрезков разбиения&lt;/font&gt;&lt;/div&gt;" style="text;html=1;align=center;verticalAlign=middle;resizable=0;points=[];autosize=1;strokeColor=none;fillColor=none;" vertex="1" parent="WIyWlLk6GJQsqaUBKTNV-1">
          <mxGeometry x="706.55" y="1012" width="460" height="60" as="geometry" />
        </mxCell>
        <mxCell id="igKSZ6gipQgDNoNqwFOj-33" style="edgeStyle=orthogonalEdgeStyle;rounded=0;orthogonalLoop=1;jettySize=auto;html=1;exitX=0.5;exitY=1;exitDx=0;exitDy=0;entryX=0;entryY=0.5;entryDx=0;entryDy=0;entryPerimeter=0;" edge="1" parent="WIyWlLk6GJQsqaUBKTNV-1" source="igKSZ6gipQgDNoNqwFOj-29" target="igKSZ6gipQgDNoNqwFOj-24">
          <mxGeometry relative="1" as="geometry">
            <Array as="points">
              <mxPoint x="567" y="1112" />
              <mxPoint x="408" y="1112" />
              <mxPoint x="408" y="682" />
            </Array>
          </mxGeometry>
        </mxCell>
        <mxCell id="igKSZ6gipQgDNoNqwFOj-34" value="&lt;font style=&quot;font-size: 18px;&quot;&gt;Выводим последнее значение&amp;nbsp;&lt;/font&gt;" style="whiteSpace=wrap;html=1;strokeWidth=2;" vertex="1" parent="WIyWlLk6GJQsqaUBKTNV-1">
          <mxGeometry x="706.55" y="645" width="155.45" height="74" as="geometry" />
        </mxCell>
        <mxCell id="igKSZ6gipQgDNoNqwFOj-37" value="&lt;font style=&quot;font-size: 18px;&quot;&gt;Конец&lt;/font&gt;" style="strokeWidth=2;html=1;shape=mxgraph.flowchart.start_1;whiteSpace=wrap;" vertex="1" parent="WIyWlLk6GJQsqaUBKTNV-1">
          <mxGeometry x="734.27" y="780" width="100" height="60" as="geometry" />
        </mxCell>
        <mxCell id="igKSZ6gipQgDNoNqwFOj-39" style="edgeStyle=orthogonalEdgeStyle;rounded=0;orthogonalLoop=1;jettySize=auto;html=1;exitX=0.5;exitY=1;exitDx=0;exitDy=0;entryX=0.5;entryY=0;entryDx=0;entryDy=0;entryPerimeter=0;" edge="1" parent="WIyWlLk6GJQsqaUBKTNV-1" source="igKSZ6gipQgDNoNqwFOj-34" target="igKSZ6gipQgDNoNqwFOj-37">
          <mxGeometry relative="1" as="geometry" />
        </mxCell>
      </root>
    </mxGraphModel>
  </diagram>
</mxfile>
